<svg width="20" height="20" viewBox="0 0 20 20" fill="none" xmlns="http://www.w3.org/2000/svg">
<path d="M18.0313 10.7012L14.5342 7.19825C14.2412 6.90528 13.7656 6.90626 13.4727 7.19727C13.1797 7.49024 13.1797 7.96485 13.4717 8.25879L15.6877 10.4785H8.49317C7.29005 10.4785 6.16016 10.0107 5.31055 9.16114C4.45996 8.31055 3.99219 7.18067 3.99219 5.97852C3.99219 5.56446 3.65625 5.22852 3.24219 5.22852C2.82813 5.22852 2.49219 5.56446 2.49219 5.97852C2.49219 7.58106 3.11621 9.0879 4.25 10.2217C5.38281 11.3545 6.88965 11.9785 8.49316 11.9785H15.6924L13.4726 14.1982C13.1797 14.4912 13.1797 14.9658 13.4726 15.2588C13.6191 15.4053 13.8105 15.4785 14.0029 15.4785C14.1953 15.4785 14.3867 15.4053 14.5332 15.2588L18.0303 11.7617C18.3232 11.4688 18.3232 10.9941 18.0313 10.7012Z" fill="#292929"/>
</svg>
