<svg width="4" height="6" viewBox="0 0 4 6" fill="none" xmlns="http://www.w3.org/2000/svg">
<path d="M0.699732 5.90868C0.511252 5.90868 0.334502 5.83495 0.201682 5.70067C0.0703319 5.56737 -0.00143816 5.3911 2.18447e-05 5.20409C0.00148184 5.01708 0.0752218 4.84179 0.208032 4.71093L1.99367 2.94726L0.222672 1.19824C0.0898619 1.06689 0.0156418 0.8916 0.0146618 0.70459C0.0132018 0.51758 0.0849719 0.34131 0.216322 0.2085C0.349132 0.07422 0.525892 0 0.714862 0C0.899922 0 1.07472 0.07178 1.20656 0.20215L3.48146 2.44922C3.61916 2.58887 3.69093 2.76514 3.68947 2.95215C3.68801 3.13916 3.61427 3.31445 3.48146 3.44531L1.19191 5.70703C1.06007 5.83691 0.885282 5.90868 0.699732 5.90868Z" fill="#505050"/>
</svg>
