<svg width="20" height="20" viewBox="0 0 20 20" fill="none" xmlns="http://www.w3.org/2000/svg">
<path d="M10 18.75C5.1748 18.75 1.25 14.8252 1.25 10C1.25 5.1748 5.1748 1.25 10 1.25C14.8252 1.25 18.75 5.1748 18.75 10C18.75 14.8252 14.8252 18.75 10 18.75ZM10 2.75C6.00195 2.75 2.75 6.00195 2.75 10C2.75 13.998 6.00195 17.25 10 17.25C13.998 17.25 17.25 13.998 17.25 10C17.25 6.00195 13.998 2.75 10 2.75Z" fill="#292929"/>
<path d="M9.22267 13.5C9.01076 13.5 8.80763 13.4101 8.66505 13.2519L6.15431 10.4599C5.87697 10.1514 5.90236 9.67772 6.20997 9.40038C6.51758 9.12304 6.99122 9.14843 7.26954 9.45604L9.16309 11.5625L12.6504 6.80663C12.8935 6.47265 13.3613 6.39745 13.6982 6.6455C14.0322 6.88964 14.1045 7.35937 13.8594 7.69335L9.82714 13.1933C9.69433 13.376 9.48534 13.4883 9.25976 13.499C9.24804 13.5 9.23537 13.5 9.22267 13.5Z" fill="#292929"/>
</svg>
