<svg width="20" height="20" viewBox="0 0 20 20" fill="none" xmlns="http://www.w3.org/2000/svg">
<path d="M13.7832 15.708L8.7373 3.78028C8.50195 3.22559 7.59082 3.22559 7.35546 3.78028L2.30908 15.708C2.14795 16.0889 2.32617 16.5293 2.70801 16.6904C2.80322 16.7315 2.90235 16.75 2.99951 16.75C3.29199 16.75 3.56982 16.5781 3.69092 16.292L5.50672 12H10.5858L12.4014 16.292C12.5625 16.6729 13.0029 16.8545 13.3843 16.6904C13.7661 16.5293 13.9443 16.0889 13.7832 15.708ZM6.14135 10.5L8.04638 5.99708L9.95123 10.5H6.14135Z" fill="#292929"/>
<path d="M16.25 18.75C15.8359 18.75 15.5 18.4141 15.5 18V2C15.5 1.58594 15.8359 1.25 16.25 1.25C16.6641 1.25 17 1.58594 17 2V18C17 18.4141 16.6641 18.75 16.25 18.75Z" fill="#292929"/>
</svg>
