<svg width="10" height="10" viewBox="0 0 10 10" fill="none" xmlns="http://www.w3.org/2000/svg">
<path d="M7.96534 5.17798C7.97779 5.11841 7.99903 5.06055 7.99903 5C7.99903 4.93945 7.97779 4.88159 7.96534 4.82202C7.95484 4.77173 7.95484 4.71997 7.93531 4.67187C7.91187 4.61376 7.86719 4.56518 7.83082 4.51245C7.80177 4.47021 7.78443 4.42248 7.74708 4.38476C7.74586 4.38354 7.74415 4.3833 7.74293 4.38207C7.74171 4.38084 7.74147 4.37914 7.74024 4.37792L3.61524 0.302729C3.27149 -0.0371112 2.71778 -0.0341812 2.37794 0.309569C2.0381 0.653319 2.04103 1.20801 2.38478 1.54687L5.88014 4.99999L2.38478 8.45311C2.04103 8.79198 2.0381 9.34666 2.37794 9.69041C2.54884 9.86326 2.77442 9.95018 3.00001 9.95018C3.22169 9.95018 3.44435 9.8662 3.61524 9.69725L7.74024 5.62205C7.74146 5.62083 7.7417 5.61912 7.74293 5.6179C7.74416 5.61668 7.74586 5.61644 7.74708 5.61521C7.78443 5.57749 7.80177 5.52976 7.83082 5.48752C7.8672 5.43479 7.91187 5.3862 7.93531 5.3281C7.95484 5.28 7.95484 5.22828 7.96534 5.17798Z" fill="#292929"/>
</svg>
