<svg id="folder" width="20" height="20" viewBox="0 0 20 20" fill="none" xmlns="http://www.w3.org/2000/svg">
<path d="M16.75 5H10.7861C10.5684 5 10.3623 4.90527 10.2192 4.74121L8.51563 2.77637C8.0879 2.28321 7.46827 2 6.81543 2H3.25C2.00928 2 1 3.00977 1 4.25V14.75C1 15.9902 2.00928 17 3.25 17H16.75C17.9907 17 19 15.9902 19 14.75V7.25C19 6.00977 17.9907 5 16.75 5ZM3.25 3.5H6.81543C7.0332 3.5 7.23926 3.59473 7.38232 3.75879L8.45849 5H2.5V4.25C2.5 3.83691 2.83643 3.5 3.25 3.5ZM17.5 14.75C17.5 15.1631 17.1636 15.5 16.75 15.5H3.25C2.83643 15.5 2.5 15.1631 2.5 14.75V6.5H16.75C17.1636 6.5 17.5 6.83691 17.5 7.25V14.75Z" fill="#292929"/>
</svg>
