<svg width="20" height="20" viewBox="0 0 20 20" fill="none" xmlns="http://www.w3.org/2000/svg">
<path d="M11.0606 10L13.2803 7.78028C13.5733 7.48731 13.5733 7.0127 13.2803 6.71973C12.9873 6.42676 12.5127 6.42676 12.2197 6.71973L10 8.93946L7.78028 6.71973C7.48731 6.42676 7.0127 6.42676 6.71973 6.71973C6.42676 7.0127 6.42676 7.48731 6.71973 7.78028L8.93946 10L6.71973 12.2197C6.42676 12.5127 6.42676 12.9873 6.71973 13.2803C6.86621 13.4268 7.05762 13.5 7.25 13.5C7.44238 13.5 7.63379 13.4268 7.78027 13.2803L10 11.0606L12.2197 13.2803C12.3662 13.4268 12.5576 13.5 12.75 13.5C12.9424 13.5 13.1338 13.4268 13.2803 13.2803C13.5732 12.9873 13.5732 12.5127 13.2803 12.2197L11.0606 10Z" fill="#292929"/>
<path d="M10 18.75C5.1748 18.75 1.25 14.8252 1.25 10C1.25 5.1748 5.1748 1.25 10 1.25C14.8252 1.25 18.75 5.1748 18.75 10C18.75 14.8252 14.8252 18.75 10 18.75ZM10 2.75C6.00195 2.75 2.75 6.00195 2.75 10C2.75 13.998 6.00195 17.25 10 17.25C13.998 17.25 17.25 13.998 17.25 10C17.25 6.00195 13.998 2.75 10 2.75Z" fill="#292929"/>
</svg>
