<svg width="20" height="20" viewBox="0 0 20 20" fill="none" xmlns="http://www.w3.org/2000/svg">
<path d="M9.86241 16.4551C9.66612 16.4551 9.46886 16.3779 9.32237 16.2246L3.83507 10.5215C3.5548 10.2315 3.5548 9.77248 3.83507 9.48244L9.33507 3.76564C9.62218 3.46681 10.0978 3.45802 10.3946 3.74513C10.6935 4.03224 10.7032 4.50685 10.4151 4.8047L5.41613 10.002L10.4025 15.1856C10.6905 15.4834 10.6808 15.958 10.3819 16.2451C10.2374 16.3858 10.0499 16.4551 9.86241 16.4551Z" fill="#292929"/>
<path d="M15.6124 16.4551C15.4161 16.4551 15.2189 16.3779 15.0724 16.2246L9.58507 10.5215C9.3048 10.2315 9.3048 9.77248 9.58507 9.48244L15.0851 3.76564C15.3722 3.46681 15.8478 3.45802 16.1446 3.74513C16.4435 4.03224 16.4532 4.50685 16.1651 4.8047L11.1661 10.002L16.1525 15.1856C16.4405 15.4834 16.4308 15.958 16.1319 16.2451C15.9874 16.3858 15.7999 16.4551 15.6124 16.4551Z" fill="#292929"/>
</svg>
