<svg width="20" height="20" viewBox="0 0 20 20" fill="none" xmlns="http://www.w3.org/2000/svg">
<path d="M10.001 7.5C8.62598 7.5 7.50586 8.61426 7.5 9.98926C7.49414 11.3682 8.61133 12.4941 9.98926 12.5H9.99903C11.374 12.5 12.4941 11.3857 12.5 10.0107C12.5059 8.63183 11.3887 7.50586 10.0107 7.5H10.001ZM11 10.0049C10.999 10.2715 10.8935 10.5225 10.7041 10.71C10.5156 10.8975 10.2656 11 9.99902 11H9.99511C9.72851 10.999 9.47753 10.8935 9.29003 10.7041C9.10155 10.5146 8.99901 10.2627 8.99999 9.99512C9.00097 9.72852 9.10644 9.47754 9.29589 9.29004C9.48437 9.10254 9.73437 9 10.001 9H10.0049C10.2715 9.00098 10.5225 9.10645 10.71 9.2959C10.8984 9.48535 11.001 9.73731 11 10.0049Z" fill="#292929"/>
<path d="M7.13574 16.705C6.97656 16.8027 6.78515 16.8056 6.63086 16.7158L5.81348 16.2392C5.59082 16.1084 5.50293 15.8252 5.61426 15.5918L6.39942 13.9433C6.52637 13.6767 6.48536 13.3603 6.29395 13.1357C5.91114 12.6845 5.61622 12.1679 5.417 11.5986C5.31934 11.3203 5.06837 11.125 4.77442 11.0996L2.95606 10.9404C2.69922 10.9179 2.49903 10.6982 2.50001 10.4394L2.50392 9.49312C2.5049 9.23531 2.70704 9.01753 2.96388 8.998L4.78517 8.85445C5.08009 8.83101 5.33302 8.63765 5.43263 8.35933C5.63478 7.79488 5.93458 7.28023 6.32325 6.82906C6.51563 6.6064 6.55958 6.29097 6.43458 6.0234L5.6631 4.36715C5.5547 4.13473 5.64552 3.8525 5.86915 3.72457L6.69044 3.25484C6.91407 3.12593 7.20509 3.19136 7.3506 3.40523L8.3838 4.90914C8.55079 5.1523 8.83985 5.2734 9.13478 5.22262C9.43849 5.16793 9.72072 5.14157 9.99904 5.14157C10.2861 5.15134 10.5869 5.16891 10.9082 5.23044C11.1943 5.2822 11.4932 5.16501 11.6611 4.9238L12.708 3.42966C12.8555 3.21775 13.1475 3.1572 13.3692 3.28415L14.1865 3.76071C14.4092 3.89157 14.4971 4.17477 14.3858 4.40817L13.6006 6.05563C13.4736 6.32125 13.5147 6.63766 13.7051 6.86227C13.9678 7.17282 14.1982 7.55465 14.4111 8.03024C14.5801 8.41012 15.0234 8.58102 15.4014 8.40915C15.7793 8.2402 15.9492 7.79685 15.7803 7.41892C15.5898 6.99119 15.3818 6.61716 15.1514 6.28611L15.7393 5.05369C16.1846 4.124 15.834 2.98631 14.9424 2.4658L14.125 1.98924C13.2373 1.46873 12.0723 1.72264 11.4795 2.56834L10.6992 3.68162C10.4717 3.65525 10.25 3.64256 10.0293 3.64158C9.80664 3.63377 9.58399 3.65232 9.35645 3.67576L8.58692 2.55564C8.00098 1.70505 6.8418 1.44041 5.9463 1.95212L5.12403 2.42282C4.22755 2.93552 3.86817 4.0693 4.30469 5.00192L4.87891 6.2363C4.61426 6.59763 4.38868 6.98435 4.20508 7.39548L2.84668 7.50193C1.81836 7.58298 1.00879 8.45505 1.00391 9.48728L0.999999 10.4336C0.995119 11.4658 1.79688 12.3447 2.8252 12.4346L4.18165 12.5537C4.36231 12.9658 4.58399 13.3554 4.84571 13.7177L4.26075 14.9463C3.81544 15.876 4.16602 17.0137 5.05763 17.5342L5.87501 18.0107C6.18165 18.1904 6.52638 18.2793 6.8711 18.2793C7.22852 18.2793 7.58692 18.1836 7.90723 17.9922C8.2627 17.7793 8.37793 17.3183 8.16504 16.9629C7.95215 16.6084 7.49219 16.4922 7.13574 16.705Z" fill="#292929"/>
<path d="M18.5527 10.0947C17.585 9.30176 16.0996 9.40723 15.1738 10.334L10.9902 14.5166C10.7432 14.7637 10.5586 15.0713 10.458 15.4063L9.5039 18.5664C9.42382 18.8311 9.49609 19.1182 9.6914 19.3135C9.83398 19.4561 10.0254 19.5332 10.2217 19.5332C10.2939 19.5332 10.3672 19.5225 10.4385 19.501L13.5967 18.5479C13.9316 18.4473 14.2393 18.2627 14.4873 18.0147L18.7402 13.7617C19.2334 13.2686 19.4971 12.585 19.4619 11.8887C19.4267 11.1924 19.0957 10.5381 18.5527 10.0947ZM13.1641 17.1113L11.3438 17.6611L11.8936 15.8398C11.9111 15.7827 11.9521 15.7378 11.9846 15.6875L13.3168 17.02C13.2666 17.0527 13.2214 17.0937 13.1641 17.1113ZM17.6797 12.7012L14.2236 16.1572L12.8473 14.7808L16.2344 11.3945C16.6221 11.0068 17.2227 10.9434 17.6035 11.2559C17.8223 11.4336 17.9502 11.6855 17.9639 11.9629C17.9775 12.2422 17.877 12.5039 17.6797 12.7012Z" fill="#292929"/>
</svg>
