<svg id="send" width="20" height="20" viewBox="0 0 20 20" fill="none" xmlns="http://www.w3.org/2000/svg">
<path d="M18.6485 9.97356C18.6482 9.67905 18.4769 9.41112 18.2059 9.29062L4.05752 2.93288C3.80133 2.81756 3.50129 2.85589 3.28171 3.03128C3.06178 3.20771 2.95889 3.49152 3.01516 3.76739L4.28678 10.0081L3.06488 16.2384C3.0162 16.4853 3.09492 16.738 3.27031 16.9134C3.29068 16.9338 3.31278 16.9531 3.33522 16.9714C3.55619 17.1454 3.85519 17.182 4.11069 17.066L18.2086 10.6579C18.4773 10.5357 18.6489 10.2681 18.6485 9.97356ZM14.406 9.22722L5.66439 9.25385L4.77705 4.9009L14.406 9.22722ZM4.81711 15.0973L5.6694 10.753L14.4323 10.7264L4.81711 15.0973Z" fill="#292929"/>
</svg>
