<svg width="20" height="20" viewBox="0 0 20 20" fill="none" xmlns="http://www.w3.org/2000/svg">
<path d="M16.3408 5.2959L12.7197 1.67383C12.3008 1.25488 11.7207 1.01465 11.1289 1.01465H5.25C4.00977 1.01465 3 2.02442 3 3.26465V15.748C3 16.9883 4.00977 17.998 5.25 17.998H14.75C15.9902 17.998 17 16.9883 17 15.748V6.88672C17 6.28613 16.7656 5.7207 16.3408 5.2959ZM15.2803 6.35645C15.3264 6.40259 15.3542 6.45997 15.3862 6.51465H12.25C11.8369 6.51465 11.5 6.17774 11.5 5.76465V2.62842C11.5554 2.66065 11.6135 2.68872 11.6592 2.73438L15.2803 6.35645ZM14.75 16.498H5.25C4.83691 16.498 4.5 16.1611 4.5 15.748V3.26465C4.5 2.85156 4.83691 2.51465 5.25 2.51465H10V5.76465C10 7.00488 11.0098 8.01465 12.25 8.01465H15.5V15.748C15.5 16.1611 15.1631 16.498 14.75 16.498Z" fill="#292929"/>
<path d="M13 11.498H7C6.58594 11.498 6.25 11.1621 6.25 10.748C6.25 10.334 6.58594 9.99805 7 9.99805H13C13.4141 9.99805 13.75 10.334 13.75 10.748C13.75 11.1621 13.4141 11.498 13 11.498Z" fill="#292929"/>
<path d="M13 14.498H7C6.58594 14.498 6.25 14.1621 6.25 13.748C6.25 13.334 6.58594 12.998 7 12.998H13C13.4141 12.998 13.75 13.334 13.75 13.748C13.75 14.1621 13.4141 14.498 13 14.498Z" fill="#292929"/>
</svg>
