<svg width="20" height="20" viewBox="0 0 20 20" fill="none" xmlns="http://www.w3.org/2000/svg">
<path d="M9.61805 16.2451C9.31922 15.958 9.30945 15.4834 9.59754 15.1856L14.5839 10.002L9.58485 4.8047C9.29677 4.50685 9.30653 4.03224 9.60536 3.74513C9.90223 3.45802 10.3778 3.46681 10.6649 3.76564L16.1649 9.48244C16.4452 9.77248 16.4452 10.2315 16.1649 10.5215L10.6776 16.2246C10.5311 16.3779 10.3339 16.4551 10.1376 16.4551C9.95008 16.4551 9.76258 16.3858 9.61805 16.2451Z" fill="#292929"/>
<path d="M3.86805 16.2451C3.56922 15.958 3.55945 15.4834 3.84754 15.1856L8.83387 10.002L3.83485 4.8047C3.54677 4.50685 3.55653 4.03224 3.85536 3.74513C4.15223 3.45802 4.62782 3.46681 4.91493 3.76564L10.4149 9.48244C10.6952 9.77248 10.6952 10.2315 10.4149 10.5215L4.92763 16.2246C4.78114 16.3779 4.58388 16.4551 4.38759 16.4551C4.20008 16.4551 4.01258 16.3858 3.86805 16.2451Z" fill="#292929"/>
</svg>
