<svg id="table" width="20" height="20" viewBox="0 0 20 20" fill="none" xmlns="http://www.w3.org/2000/svg">
<path d="M15.75 2H4.25C3.00928 2 2 3.00977 2 4.25V15.75C2 16.9902 3.00928 18 4.25 18H15.75C16.9907 18 18 16.9902 18 15.75V4.25C18 3.00977 16.9907 2 15.75 2ZM3.5 9H6.5V12H3.5V9ZM8 9H16.5V12H8V9ZM3.5 4.25C3.5 3.83691 3.83643 3.5 4.25 3.5H15.75C16.1636 3.5 16.5 3.83691 16.5 4.25V7.5H3.5V4.25ZM3.5 15.75V13.5H6.5V16.5H4.25C3.83643 16.5 3.5 16.1631 3.5 15.75ZM16.5 15.75C16.5 16.1631 16.1636 16.5 15.75 16.5H8V13.5H16.5V15.75Z" fill="#292929"/>
</svg>
