<svg width="20" height="20" viewBox="0 0 20 20" fill="none" xmlns="http://www.w3.org/2000/svg">
<path d="M9.53027 4.46973L6.53027 1.46973C6.2373 1.17676 5.76269 1.17676 5.46972 1.46973L2.46972 4.46973C2.17675 4.7627 2.17675 5.23731 2.46972 5.53028C2.76269 5.82325 3.2373 5.82325 3.53027 5.53028L5.25 3.81055V16C5.25 16.4141 5.58594 16.75 6 16.75C6.41406 16.75 6.75 16.4141 6.75 16V3.81055L8.46973 5.53028C8.61621 5.67676 8.80811 5.75001 9 5.75001C9.19189 5.75001 9.38379 5.67677 9.53027 5.53028C9.82324 5.23731 9.82324 4.7627 9.53027 4.46973Z" fill="#292929"/>
<path d="M17.5303 14.4697C17.2373 14.1768 16.7627 14.1768 16.4697 14.4697L14.75 16.1895V4C14.75 3.58594 14.4141 3.25 14 3.25C13.5859 3.25 13.25 3.58594 13.25 4V16.1894L11.5303 14.4697C11.2373 14.1768 10.7627 14.1768 10.4697 14.4697C10.1767 14.7627 10.1767 15.2373 10.4697 15.5303L13.4697 18.5303C13.6162 18.6767 13.8081 18.75 14 18.75C14.1919 18.75 14.3838 18.6768 14.5303 18.5303L17.5303 15.5303C17.8232 15.2373 17.8232 14.7627 17.5303 14.4697Z" fill="#292929"/>
</svg>
