<svg width="20" height="20" viewBox="0 0 20 20" fill="none" xmlns="http://www.w3.org/2000/svg">
<path d="M16.876 4.84082L11.126 1.52148C10.4297 1.11914 9.56739 1.12011 8.875 1.52148L3.12402 4.84082C2.43066 5.24219 2 5.98926 2 6.79004V13.4297C2 14.2315 2.43164 14.9775 3.125 15.3779L8.87402 18.6982C9.22168 18.8994 9.61132 18.999 10 18.999C10.3897 18.999 10.7783 18.8994 11.125 18.6982L16.875 15.3779C17.5684 14.9775 18 14.2315 18 13.4297V6.79004C18 5.98926 17.5693 5.24219 16.876 4.84082ZM9.62598 2.82031C9.74121 2.75293 9.87012 2.71972 10 2.71972C10.1289 2.71972 10.2588 2.75292 10.375 2.82031L15.6602 5.87182L10.0007 8.99413L4.33643 5.87328L9.62598 2.82031ZM3.875 14.0791C3.64355 13.9453 3.5 13.6963 3.5 13.4297V7.12598L9.25 10.294V17.1829L3.875 14.0791ZM16.125 14.0791L10.75 17.1824V10.293L16.5 7.12061V13.4297C16.5 13.6963 16.3565 13.9453 16.125 14.0791Z" fill="#292929"/>
</svg>
