<svg width="20" height="20" viewBox="0 0 20 20" fill="none" xmlns="http://www.w3.org/2000/svg">
<path d="M18 15.5H3C2.58594 15.5 2.25 15.1641 2.25 14.75C2.25 14.3359 2.58594 14 3 14H18C18.4141 14 18.75 14.3359 18.75 14.75C18.75 15.1641 18.4141 15.5 18 15.5ZM11 3.25001C7.22339 3.25001 4.07367 6.06617 3.3913 9.77833L2.53272 8.33839C2.32129 7.98243 1.86036 7.8672 1.5044 8.07862C1.14893 8.29053 1.03223 8.75098 1.24463 9.10694L3.04004 12.1187C3.14356 12.2925 3.31348 12.417 3.51025 12.4639C3.56787 12.4775 3.62597 12.4844 3.68408 12.4844C3.82519 12.4844 3.96484 12.4443 4.08594 12.3677L7.00537 10.5151C7.35498 10.293 7.45849 9.82959 7.23682 9.47998C7.01465 9.12988 6.55078 9.02686 6.20166 9.24853L4.85779 10.1014C5.39227 7.06189 7.94049 4.75 11 4.75C14.4463 4.75 17.25 7.68115 17.25 11.2842C17.25 11.6982 17.5859 12.0342 18 12.0342C18.4141 12.0342 18.75 11.6982 18.75 11.2842C18.75 6.854 15.2734 3.25001 11 3.25001Z" fill="#292929"/>
</svg>
