<svg xmlns="http://www.w3.org/2000/svg" width="20" height="20" fill="none" viewBox="0 0 20 20">
  <g id="S2_Icon_PinOff_20_N">
    <path fill="currentColor" d="M17.38 6.566 13.436 2.62a1.907 1.907 0 0 0-1.36-.562c-.514 0-1 .2-1.361.563a1.903 1.903 0 0 0-.557 1.565L6.992 7.35l-2.311-.199a1.717 1.717 0 0 0-1.76.986 1.732 1.732 0 0 0 .344 1.99L6.038 12.9 2.22 16.72a.75.75 0 1 0 1.06 1.06l3.82-3.818 2.774 2.774a1.732 1.732 0 0 0 1.99.344 1.722 1.722 0 0 0 .986-1.746l-.2-2.326 3.165-3.166a1.894 1.894 0 0 0 1.565-.554c.363-.363.563-.846.564-1.36a1.91 1.91 0 0 0-.562-1.362Zm-1.062 1.662a.387.387 0 0 1-.437.095.745.745 0 0 0-.827.158l-3.713 3.713a.749.749 0 0 0-.217.595l.231 2.688a.23.23 0 0 1-.138.249.233.233 0 0 1-.283-.05L4.325 9.067a.233.233 0 0 1-.05-.284.23.23 0 0 1 .224-.14l.04.002 2.672.23c.222.02.437-.06.595-.217l3.712-3.712a.75.75 0 0 0 .158-.827c-.066-.153-.031-.307.098-.437a.422.422 0 0 1 .301-.124.42.42 0 0 1 .299.123l3.946 3.946a.425.425 0 0 1-.002.6Z"/>
  </g>
</svg>
