<svg width="20" height="20" viewBox="0 0 20 20" id="sl-profile" xmlns="http://www.w3.org/2000/svg">
  <path
    d="M10 1.25C5.17529 1.25 1.25 5.17529 1.25 10C1.25 14.8247 5.17529 18.75 10 18.75C14.8247 18.75 18.75 14.8247 18.75 10C18.75 5.17529 14.8247 1.25 10 1.25ZM10 2.75C13.9976 2.75 17.25 6.00244 17.25 10C17.25 11.6318 16.7015 13.1342 15.7882 14.3472C14.3065 13.1035 12.2015 12.375 10 12.375C7.73267 12.375 5.58246 13.1159 4.20258 14.3348C3.29487 13.124 2.75 11.6263 2.75 10C2.75 6.00244 6.00244 2.75 10 2.75ZM5.22034 15.4371C6.32202 14.4781 8.12873 13.875 10 13.875C11.7973 13.875 13.5619 14.4665 14.7684 15.4474C13.4922 16.566 11.8263 17.25 10 17.25C8.16827 17.25 6.49799 16.5617 5.22034 15.4371ZM10.0581 11.3999C10.0366 11.3999 10.001 11.3897 9.99512 11.3994C9.35791 11.3994 8.73731 11.2188 8.19922 10.8765C7.66992 10.5376 7.23779 10.0659 6.94824 9.51025C6.64258 8.92724 6.48584 8.26953 6.49609 7.60986C6.47168 6.3374 7.10595 5.13818 8.19336 4.42724C9.2915 3.72949 10.7012 3.729 11.7925 4.42187C12.3203 4.76367 12.752 5.23242 13.0469 5.78027C13.3535 6.3457 13.5117 6.98632 13.5039 7.63086C13.5146 8.271 13.3584 8.93164 13.0518 9.51904C12.7612 10.0752 12.3291 10.5493 11.8022 10.8901C11.2759 11.2251 10.6758 11.3999 10.0581 11.3999ZM10.0098 9.89941H10.0195C10.3677 9.91503 10.7012 9.81298 10.9922 9.62744C11.2974 9.43017 11.5513 9.15137 11.7217 8.82471C11.9131 8.4585 12.0107 8.04639 12.0039 7.63379C12.0088 7.22315 11.9131 6.83594 11.7271 6.49317C11.5508 6.16505 11.2935 5.88575 10.9829 5.68458C10.3867 5.30665 9.6089 5.30567 9.00587 5.68849C8.36183 6.10939 7.98146 6.82863 7.9961 7.60744C7.98975 8.04299 8.08692 8.45168 8.27735 8.81545C8.44727 9.14016 8.69874 9.41555 9.00587 9.61184C9.30128 9.79983 9.64357 9.89944 9.99513 9.89944L10.0098 9.89941Z"
    fill="currentColor" />
</svg>
