<svg id="commenttext" width="20" height="20" viewBox="0 0 20 20" fill="none" xmlns="http://www.w3.org/2000/svg">
<path d="M6.78125 19C6.68213 19 6.58252 18.9805 6.48779 18.9404C6.21093 18.8223 6.03125 18.5508 6.03125 18.25V15H4.75C2.68213 15 1 13.3174 1 11.25V5.75C1 3.68262 2.68213 2 4.75 2H15.25C17.3179 2 19 3.68262 19 5.75V11.25C19 13.3174 17.3179 15 15.25 15H11.2383L7.30127 18.79C7.15869 18.9277 6.97168 19 6.78125 19ZM4.75 3.5C3.50928 3.5 2.5 4.50977 2.5 5.75V11.25C2.5 12.4902 3.50928 13.5 4.75 13.5H6.78125C7.19531 13.5 7.53125 13.8359 7.53125 14.25V16.4873L10.416 13.71C10.5557 13.5752 10.7422 13.5 10.936 13.5H15.25C16.4907 13.5 17.5 12.4902 17.5 11.25V5.75C17.5 4.50977 16.4907 3.5 15.25 3.5H4.75Z" fill="#292929"/>
<path d="M12.25 10.5H6.75C6.33594 10.5 6 10.1641 6 9.75C6 9.33594 6.33594 9 6.75 9H12.25C12.6641 9 13 9.33594 13 9.75C13 10.1641 12.6641 10.5 12.25 10.5Z" fill="#292929"/>
<path d="M13.25 7.5H6.75C6.33594 7.5 6 7.16406 6 6.75C6 6.33594 6.33594 6 6.75 6H13.25C13.6641 6 14 6.33594 14 6.75C14 7.16406 13.6641 7.5 13.25 7.5Z" fill="#292929"/>
</svg>
