<svg xmlns="http://www.w3.org/2000/svg" width="20" height="20" fill="none" viewBox="0 0 20 20">
  <g id="S2_Icon_Clock_20_N">
    <path fill="currentColor" d="M10 18.75c-4.825 0-8.75-3.925-8.75-8.75S5.175 1.25 10 1.25s8.75 3.925 8.75 8.75-3.925 8.75-8.75 8.75Zm0-16A7.258 7.258 0 0 0 2.75 10c0 3.998 3.252 7.25 7.25 7.25s7.25-3.252 7.25-7.25S13.998 2.75 10 2.75Z"/>
    <path fill="currentColor" d="M13.249 12.645a.743.743 0 0 1-.379-.104l-3.22-1.895A.75.75 0 0 1 9.28 10V5a.75.75 0 0 1 1.5 0v4.571l2.85 1.677a.75.75 0 0 1-.381 1.397Z"/>
  </g>
</svg>
