<svg width="20" height="20" viewBox="0 0 20 20" fill="none" xmlns="http://www.w3.org/2000/svg">
<g id="S2_Icon_ArrowDown_20_N">
  <path fill="currentColor" d="M9.66,15.52c.06.03.13.03.2.04.05,0,.09.03.14.03s.1-.02.14-.03c.07-.01.14-.01.2-.04,0,0,0,0,0,0,.09-.04.16-.09.24-.16.02-.02.04-.02.06-.04l3.57-3.57c.36-.36.36-.93,0-1.29-.36-.36-.93-.36-1.29,0l-2.01,2.01v-7.15c0-.5-.41-.91-.91-.91s-.91.41-.91.91v7.15l-2.01-2.01c-.36-.36-.93-.36-1.29,0-.18.18-.27.41-.27.64s.09.47.27.64l3.57,3.57s.04.02.06.04c.07.06.15.12.24.16,0,0,0,0,0,0Z"/>
</g>
</svg>
