<?xml version="1.0" encoding="utf-8"?>
<!-- Generator: Adobe Illustrator 27.6.0, SVG Export Plug-In . SVG Version: 6.00 Build 0)  -->
<svg version="1.1" id="Layer_1" xmlns="http://www.w3.org/2000/svg" xmlns:xlink="http://www.w3.org/1999/xlink" x="0px" y="0px"
	 viewBox="0 0 56 56" style="enable-background:new 0 0 56 56;" xml:space="preserve">
<style type="text/css">
	.st0{fill:#E81D25;}
	.st1{fill:#FFFFFF;}
</style>
<g>
	<path class="st0" d="M38.07,11.87H17.61c-3.19,0-5.77,2.58-5.77,5.77V38.1c0,3.19,2.58,5.77,5.77,5.77h20.46
		c3.19,0,5.77-2.58,5.77-5.77V17.64C43.84,14.45,41.26,11.87,38.07,11.87z"/>
	<path class="st1" d="M36.85,36.17h-3.86c-0.17,0-0.33-0.04-0.47-0.14c-0.14-0.09-0.25-0.22-0.32-0.38L28,25.78
		c0,0-0.03-0.07-0.07-0.1c-0.03-0.02-0.07-0.04-0.11-0.04s-0.08,0.01-0.11,0.04c-0.03,0.02-0.06,0.06-0.07,0.09l-2.61,6.27
		c0,0-0.02,0.07-0.02,0.11s0.02,0.07,0.04,0.1s0.05,0.06,0.08,0.07c0.03,0.02,0.07,0.03,0.1,0.03h2.87c0.09,0,0.17,0.03,0.24,0.07
		c0.07,0.05,0.13,0.12,0.16,0.2l1.26,2.82c0.03,0.08,0.05,0.17,0.04,0.25c0,0.09-0.04,0.17-0.08,0.24
		c-0.05,0.07-0.11,0.13-0.19,0.17c-0.08,0.04-0.16,0.06-0.24,0.06H18.83c-0.08,0-0.16-0.02-0.23-0.06s-0.13-0.09-0.17-0.16
		s-0.07-0.14-0.08-0.22c0-0.08,0-0.16,0.04-0.23l6.66-15.95c0.07-0.17,0.19-0.31,0.34-0.41s0.33-0.15,0.51-0.15h3.84
		c0.18,0,0.36,0.05,0.51,0.15s0.27,0.25,0.34,0.41l6.7,15.95c0.03,0.07,0.04,0.15,0.04,0.23c0,0.08-0.03,0.15-0.08,0.22
		c-0.04,0.07-0.1,0.12-0.17,0.16s-0.15,0.06-0.22,0.06L36.85,36.17z"/>
</g>
</svg>
