<svg xmlns="http://www.w3.org/2000/svg" height="20" viewBox="0 0 20 20" width="20">
  <g id="da-loc-clear">
    <rect fill="none" width="20" height="20" />
    <path fill="currentColor" d="M10,1.5c-4.69,0-8.5,3.81-8.5,8.5s3.81,8.5,8.5,8.5,8.5-3.81,8.5-8.5-3.81-8.5-8.5-8.5ZM13.39,12.71c.19.19.19.49,0,.68-.09.09-.22.14-.34.14s-.25-.05-.34-.14l-2.71-2.71-2.71,2.71c-.09.09-.22.14-.34.14s-.25-.05-.34-.14c-.19-.19-.19-.49,0-.68l2.71-2.71-2.71-2.71c-.19-.19-.19-.49,0-.68.19-.19.49-.19.68,0l2.71,2.71,2.71-2.71c.19-.19.49-.19.68,0,.19.19.19.49,0,.68l-2.71,2.71,2.71,2.71Z" />
  </g>
</svg>
