<svg width="24" height="24" viewBox="0 0 24 24" fill="none" xmlns="http://www.w3.org/2000/svg">
<path d="M19.6732 0H4.32675C1.93715 0 0 1.93715 0 4.32675V19.6732C0 22.0628 1.93715 24 4.32675 24H19.6732C22.0628 24 24 22.0628 24 19.6732V4.32675C24 1.93715 22.0628 0 19.6732 0Z" fill="#EB1000"/>
<path d="M18.7566 18.2221H15.8579C15.732 18.2244 15.6082 18.189 15.5024 18.1203C15.3965 18.0516 15.3133 17.9528 15.2634 17.8364L12.1166 10.4318C12.1084 10.4029 12.0912 10.3775 12.0675 10.3593C12.0438 10.3411 12.015 10.3311 11.9852 10.3307C11.9554 10.3303 11.9262 10.3396 11.9021 10.3572C11.8779 10.3747 11.8601 10.3997 11.8511 10.4283L9.89004 15.1297C9.87939 15.1551 9.87516 15.1828 9.87773 15.2102C9.8803 15.2377 9.88957 15.2641 9.90474 15.2871C9.91991 15.3101 9.94049 15.329 9.96465 15.342C9.98881 15.3551 10.0158 15.3619 10.0432 15.3619H12.1988C12.2641 15.3619 12.328 15.3812 12.3824 15.4175C12.4369 15.4538 12.4795 15.5054 12.505 15.5659L13.4487 17.6796C13.4737 17.7389 13.4838 17.8035 13.4779 17.8676C13.472 17.9318 13.4505 17.9935 13.4152 18.0472C13.3798 18.101 13.3318 18.1451 13.2755 18.1756C13.2191 18.2061 13.1561 18.2221 13.092 18.2221H5.24455C5.18553 18.2217 5.12751 18.2067 5.07566 18.1783C5.02382 18.1499 4.97976 18.1091 4.94741 18.0594C4.91507 18.0097 4.89544 17.9527 4.89028 17.8935C4.88513 17.8344 4.8946 17.7748 4.91785 17.7202L9.90945 5.75741C9.96047 5.6308 10.0482 5.52261 10.1613 5.44696C10.2743 5.37131 10.4074 5.33173 10.5432 5.33337H13.4222C13.558 5.33156 13.6912 5.37108 13.8043 5.44675C13.9173 5.52241 14.0051 5.6307 14.056 5.75741L19.0821 17.7202C19.1054 17.7747 19.1149 17.8342 19.1098 17.8933C19.1047 17.9524 19.0852 18.0093 19.053 18.0589C19.0207 18.1086 18.9768 18.1495 18.9251 18.178C18.8734 18.2064 18.8155 18.2216 18.7566 18.2221Z" fill="white"/>
</svg>
